<svg width="938" height="200" viewBox="0 0 938 200" fill="none" xmlns="http://www.w3.org/2000/svg">
<g clip-path="url(#clip0_1_487)">
<path d="M433.764 110.069C439.52 110.759 445.122 111.143 450.494 111.143C455.867 111.143 461.699 110.836 467.608 110.146V84.9048L452.336 83.6006C442.82 82.8334 435.453 81.5291 430.464 79.6111C425.476 77.6931 421.869 74.7778 419.797 70.7883C417.725 66.7989 416.727 61.275 416.727 54.1401C416.727 46.0078 417.801 39.5633 419.95 34.8066C422.099 30.05 425.629 26.5976 430.388 24.4494C435.146 22.3013 441.669 21.3039 449.881 21.3039C461.392 21.3039 472.75 22.5314 483.878 24.9097L481.422 40.7141C472.443 38.9495 462.697 38.1056 452.26 38.1056C446.811 38.1056 442.206 38.4125 438.446 38.9495V64.4973L455.022 65.6481C463.694 66.2618 470.525 67.7195 475.436 69.8677C480.348 72.0159 483.955 75.2381 486.104 79.4577C488.253 83.6773 489.327 89.4313 489.327 96.7197C489.327 104.392 488.022 110.529 485.49 115.133C482.957 119.659 478.813 122.958 473.211 124.953C467.608 126.947 460.011 127.945 450.418 127.945C437.908 127.945 426.243 126.487 415.269 123.572L418.185 107.154C422.713 108.458 427.932 109.455 433.611 110.146L433.764 110.069Z" fill="#F5A207"/>
<path d="M556.632 126.871C552.181 127.484 546.962 127.868 540.822 127.868C530.308 127.868 522.25 126.334 516.725 123.265C511.199 120.196 507.362 114.826 505.136 107.307C502.911 99.7885 501.913 88.8943 501.913 74.7011C501.913 60.5078 503.064 49.4602 505.443 41.9416C507.746 34.423 511.813 29.0526 517.569 25.9838C523.325 22.915 531.767 21.3806 542.971 21.3806C546.808 21.3806 551.106 21.7642 556.094 22.4547C561.083 23.1452 564.843 23.9891 567.606 24.9865L564.997 41.2511C561.39 40.4072 557.246 39.64 552.487 39.0262C547.729 38.4125 543.815 38.1056 540.746 38.1056C534.376 38.1056 529.848 38.9495 527.315 40.5606C524.783 42.1718 523.478 45.4707 523.478 50.3041V109.072C529.157 110.453 535.067 111.22 541.36 111.22C550.032 111.22 558.704 109.839 567.376 107.154L569.141 123.725C565.227 125.26 561.083 126.334 556.632 126.947V126.871Z" fill="#F5A207"/>
<path d="M639.516 104.162H602.908L596.692 125.49H576.662L605.825 23.8356H636.446L665.608 125.49H645.578L639.592 104.162H639.516ZM635.141 88.8942L621.941 42.5553H620.483L607.129 88.8942H635.141Z" fill="#F5A207"/>
<path d="M680.804 23.7589H700.834V108.841H736.827V125.413H680.881V23.7589H680.804Z" fill="#F5A207"/>
<path d="M806.971 104.162H770.364L764.148 125.49H744.118L773.281 23.8356H803.902L833.064 125.49H813.034L807.048 104.162H806.971ZM802.597 88.8942L789.397 42.5553H787.939L774.585 88.8942H802.597Z" fill="#F5A207"/>
<path d="M902.134 125.413L885.864 90.889H866.141V125.413H846.111V23.7589H888.243C895.918 23.7589 902.057 24.9097 906.508 27.2113C910.96 29.5129 914.183 33.1188 916.178 38.1823C918.174 43.2458 919.171 50.1506 919.171 58.8967C919.171 66.7989 918.097 73.1666 915.948 78C913.799 82.8334 910.422 86.2858 905.895 88.3572L923.776 125.413H902.134ZM866.141 75.6217H888.09C891.85 75.6217 894.536 75.1614 895.995 74.164C897.453 73.1666 898.22 71.4021 898.22 68.7936V47.1585C898.22 44.55 897.453 42.7855 895.995 41.7881C894.536 40.7908 891.927 40.3304 888.09 40.3304H866.141V75.6217Z" fill="#F5A207"/>
<path d="M56.9486 43.6228L153.416 0.659546L250.958 44.2365L157.33 84.2077L56.9486 43.6228Z" fill="#F9E17A"/>
<path d="M68.3067 62.2657L23.2579 82.3664L158.404 136.991L284.649 83.1336L239.907 63.1097L157.483 98.3242L68.3067 62.2657Z" fill="#F9BC12"/>
<path d="M44.6695 105.076L0.234619 124.869L159.172 189.161L307.672 125.713L263.928 106.15L158.558 151.031L44.6695 105.076Z" fill="#F5A207"/>
</g>
<defs>
<clipPath id="clip0_1_487">
<rect width="937.123" height="198.398" fill="white" transform="translate(0.234619 0.659546)"/>
</clipPath>
</defs>
</svg>
