<svg width="1234" height="383" viewBox="0 0 1234 383" fill="none" xmlns="http://www.w3.org/2000/svg">
<path d="M402.977 308.52C408.236 309.151 413.354 309.502 418.262 309.502C423.17 309.502 428.499 309.221 433.898 308.59V285.516L419.945 284.323C411.251 283.622 404.52 282.43 399.962 280.676C395.405 278.923 392.11 276.258 390.217 272.611C388.323 268.964 387.412 263.914 387.412 257.392C387.412 249.958 388.394 244.066 390.357 239.718C392.32 235.37 395.545 232.214 399.892 230.25C404.239 228.286 410.199 227.374 417.701 227.374C428.218 227.374 438.595 228.497 448.762 230.671L446.518 245.118C438.315 243.505 429.41 242.734 419.875 242.734C414.897 242.734 410.69 243.014 407.254 243.505V266.86L422.399 267.912C430.322 268.473 436.562 269.806 441.049 271.769C445.536 273.733 448.832 276.679 450.795 280.536C452.758 284.393 453.74 289.654 453.74 296.316C453.74 303.33 452.548 308.94 450.234 313.149C447.92 317.286 444.134 320.302 439.016 322.126C433.898 323.949 426.956 324.861 418.192 324.861C406.763 324.861 396.106 323.528 386.08 320.863L388.744 305.855C392.881 307.047 397.649 307.959 402.837 308.59L402.977 308.52Z" fill="#F5A207"/>
<path d="M515.223 323.946C511.157 324.507 506.389 324.858 500.78 324.858C491.174 324.858 483.812 323.455 478.764 320.65C473.716 317.844 470.21 312.935 468.177 306.062C466.143 299.188 465.232 289.229 465.232 276.255C465.232 263.28 466.284 253.18 468.457 246.307C470.561 239.434 474.277 234.525 479.535 231.719C484.794 228.914 492.506 227.511 502.743 227.511C506.249 227.511 510.175 227.862 514.732 228.493C519.29 229.124 522.725 229.896 525.25 230.808L522.866 245.676C519.57 244.905 515.784 244.203 511.437 243.642C507.09 243.081 503.514 242.801 500.71 242.801C494.89 242.801 490.753 243.572 488.44 245.045C486.126 246.518 484.934 249.533 484.934 253.952V307.675C490.122 308.937 495.521 309.638 501.271 309.638C509.193 309.638 517.116 308.376 525.039 305.921L526.652 321.07C523.076 322.473 519.29 323.455 515.223 324.016V323.946Z" fill="#F5A207"/>
<path d="M590.879 303.12H557.435L551.756 322.617H533.456L560.099 229.689H588.075L614.718 322.617H596.418L590.95 303.12H590.879ZM586.883 289.163L574.823 246.802H573.491L561.291 289.163H586.883Z" fill="#F5A207"/>
<path d="M628.685 229.621H646.985V307.4H679.868V322.549H628.755V229.621H628.685Z" fill="#F5A207"/>
<path d="M743.952 303.12H710.508L704.829 322.617H686.529L713.172 229.689H741.148L767.791 322.617H749.491L744.023 303.12H743.952ZM739.956 289.163L727.896 246.802H726.564L714.364 289.163H739.956Z" fill="#F5A207"/>
<path d="M830.887 322.617L816.023 291.057H798.004V322.617H779.704V229.689H818.197C825.208 229.689 830.817 230.741 834.884 232.845C838.95 234.949 841.895 238.246 843.718 242.875C845.541 247.503 846.453 253.816 846.453 261.811C846.453 269.035 845.471 274.856 843.508 279.274C841.545 283.693 838.46 286.849 834.323 288.742L850.659 322.617H830.887ZM798.004 277.1H818.056C821.492 277.1 823.946 276.679 825.278 275.767C826.61 274.856 827.312 273.243 827.312 270.858V251.08C827.312 248.696 826.61 247.083 825.278 246.171C823.946 245.259 821.562 244.838 818.056 244.838H798.004V277.1Z" fill="#F5A207"/>
<path d="M529.313 39.2751L617.447 0L706.491 39.8362L621.023 76.3761L529.313 39.2751Z" fill="#F9E17A"/>
<path d="M539.69 56.3144L498.533 74.6895L622.004 124.625L737.341 75.3909L696.465 57.0859L621.092 89.2775L539.69 56.3144Z" fill="#F9BC12"/>
<path d="M518.094 95.4476L477.498 113.542L622.634 172.315L758.375 114.314L718.34 96.4295L622.143 137.458L518.094 95.4476Z" fill="#F5A207"/>
</svg>
