<svg width="938" height="278" viewBox="0 0 938 278" fill="none" xmlns="http://www.w3.org/2000/svg">
<g clip-path="url(#clip0_1_483)">
<path d="M433.764 133.069C439.52 133.759 445.122 134.143 450.494 134.143C455.867 134.143 461.699 133.836 467.608 133.146V107.905L452.336 106.601C442.82 105.833 435.453 104.529 430.464 102.611C425.476 100.693 421.869 97.7778 419.797 93.7883C417.725 89.7989 416.727 84.275 416.727 77.1401C416.727 69.0078 417.801 62.5633 419.95 57.8066C422.099 53.05 425.629 49.5976 430.388 47.4494C435.146 45.3013 441.669 44.3039 449.881 44.3039C461.392 44.3039 472.75 45.5314 483.878 47.9097L481.422 63.7141C472.443 61.9495 462.697 61.1056 452.26 61.1056C446.811 61.1056 442.206 61.4125 438.446 61.9495V87.4973L455.022 88.6481C463.694 89.2618 470.525 90.7195 475.436 92.8677C480.348 95.0159 483.955 98.2381 486.104 102.458C488.253 106.677 489.327 112.431 489.327 119.72C489.327 127.392 488.022 133.529 485.49 138.133C482.957 142.659 478.813 145.958 473.211 147.953C467.608 149.947 460.011 150.945 450.418 150.945C437.908 150.945 426.243 149.487 415.269 146.572L418.185 130.154C422.713 131.458 427.932 132.455 433.611 133.146L433.764 133.069Z" fill="#F5A207"/>
<path d="M556.632 149.871C552.181 150.484 546.962 150.868 540.822 150.868C530.308 150.868 522.25 149.334 516.725 146.265C511.199 143.196 507.362 137.826 505.136 130.307C502.911 122.789 501.913 111.894 501.913 97.7011C501.913 83.5078 503.064 72.4602 505.443 64.9416C507.746 57.423 511.813 52.0526 517.569 48.9838C523.325 45.915 531.767 44.3806 542.971 44.3806C546.808 44.3806 551.106 44.7642 556.094 45.4547C561.083 46.1452 564.843 46.9891 567.606 47.9865L564.997 64.2511C561.39 63.4072 557.246 62.64 552.487 62.0262C547.729 61.4125 543.815 61.1056 540.746 61.1056C534.376 61.1056 529.848 61.9495 527.315 63.5606C524.783 65.1718 523.478 68.4707 523.478 73.3041V132.072C529.157 133.453 535.067 134.22 541.36 134.22C550.032 134.22 558.704 132.839 567.376 130.154L569.141 146.725C565.227 148.26 561.083 149.334 556.632 149.947V149.871Z" fill="#F5A207"/>
<path d="M639.516 127.162H602.908L596.692 148.49H576.662L605.825 46.8356H636.446L665.608 148.49H645.578L639.592 127.162H639.516ZM635.141 111.894L621.941 65.5553H620.483L607.129 111.894H635.141Z" fill="#F5A207"/>
<path d="M680.804 46.7589H700.834V131.841H736.827V148.413H680.881V46.7589H680.804Z" fill="#F5A207"/>
<path d="M806.971 127.162H770.364L764.148 148.49H744.118L773.281 46.8356H803.902L833.064 148.49H813.034L807.048 127.162H806.971ZM802.597 111.894L789.397 65.5553H787.939L774.585 111.894H802.597Z" fill="#F5A207"/>
<path d="M902.134 148.413L885.864 113.889H866.141V148.413H846.111V46.7589H888.243C895.918 46.7589 902.057 47.9097 906.508 50.2113C910.96 52.5129 914.183 56.1188 916.178 61.1823C918.174 66.2458 919.171 73.1506 919.171 81.8967C919.171 89.7989 918.097 96.1666 915.948 101C913.799 105.833 910.422 109.286 905.895 111.357L923.776 148.413H902.134ZM866.141 98.6217H888.09C891.85 98.6217 894.536 98.1614 895.995 97.164C897.453 96.1666 898.22 94.4021 898.22 91.7936V70.1585C898.22 67.55 897.453 65.7855 895.995 64.7881C894.536 63.7908 891.927 63.3304 888.09 63.3304H866.141V98.6217Z" fill="#F5A207"/>
<path d="M56.9486 66.6228L153.416 23.6595L250.958 67.2365L157.33 107.208L56.9486 66.6228Z" fill="#F9E17A"/>
<path d="M68.3067 85.2657L23.2579 105.366L158.404 159.991L284.649 106.134L239.907 86.1097L157.483 121.324L68.3067 85.2657Z" fill="#F9BC12"/>
<path d="M44.6695 128.076L0.234619 147.869L159.172 212.161L307.672 148.713L263.928 129.15L158.558 174.031L44.6695 128.076Z" fill="#F5A207"/>
</g>
<defs>
<clipPath id="clip0_1_483">
<rect width="937.123" height="198.398" fill="white" transform="translate(0.234619 23.6595)"/>
</clipPath>
</defs>
</svg>
