<svg width="938" height="278" viewBox="0 0 938 278" fill="none" xmlns="http://www.w3.org/2000/svg">
<g clip-path="url(#clip0_1_425)">
<path d="M433.764 133.069C439.52 133.759 445.122 134.143 450.494 134.143C455.866 134.143 461.699 133.836 467.608 133.146V107.905L452.336 106.601C442.82 105.833 435.453 104.529 430.464 102.611C425.476 100.693 421.869 97.7778 419.797 93.7883C417.725 89.7989 416.727 84.275 416.727 77.1401C416.727 69.0078 417.801 62.5633 419.95 57.8066C422.099 53.05 425.629 49.5976 430.387 47.4494C435.146 45.3013 441.669 44.3039 449.88 44.3039C461.392 44.3039 472.75 45.5314 483.878 47.9097L481.422 63.7141C472.443 61.9495 462.697 61.1056 452.259 61.1056C446.811 61.1056 442.206 61.4125 438.446 61.9495V87.4973L455.022 88.6481C463.694 89.2618 470.525 90.7195 475.436 92.8677C480.348 95.0159 483.955 98.2381 486.104 102.458C488.253 106.677 489.327 112.431 489.327 119.72C489.327 127.392 488.022 133.529 485.49 138.133C482.957 142.659 478.813 145.958 473.211 147.953C467.608 149.947 460.011 150.945 450.418 150.945C437.908 150.945 426.243 149.487 415.269 146.572L418.185 130.154C422.713 131.458 427.932 132.455 433.611 133.146L433.764 133.069Z" fill="#F5A207"/>
<path d="M556.632 149.871C552.181 150.484 546.962 150.868 540.822 150.868C530.308 150.868 522.25 149.334 516.725 146.265C511.199 143.196 507.362 137.826 505.136 130.307C502.911 122.789 501.913 111.894 501.913 97.7011C501.913 83.5078 503.064 72.4602 505.443 64.9416C507.746 57.423 511.813 52.0526 517.569 48.9838C523.325 45.915 531.767 44.3806 542.971 44.3806C546.808 44.3806 551.106 44.7642 556.094 45.4547C561.083 46.1452 564.843 46.9891 567.606 47.9865L564.997 64.2511C561.39 63.4072 557.246 62.64 552.487 62.0262C547.729 61.4125 543.815 61.1056 540.746 61.1056C534.376 61.1056 529.848 61.9495 527.315 63.5606C524.783 65.1718 523.478 68.4707 523.478 73.3041V132.072C529.157 133.453 535.067 134.22 541.36 134.22C550.032 134.22 558.704 132.839 567.376 130.154L569.141 146.725C565.227 148.26 561.083 149.334 556.632 149.947V149.871Z" fill="#F5A207"/>
<path d="M639.515 127.162H602.908L596.692 148.49H576.662L605.825 46.8356H636.446L665.608 148.49H645.578L639.592 127.162H639.515ZM635.141 111.894L621.941 65.5553H620.483L607.129 111.894H635.141Z" fill="#F5A207"/>
<path d="M680.804 46.7589H700.834V131.841H736.827V148.413H680.88V46.7589H680.804Z" fill="#F5A207"/>
<path d="M806.971 127.162H770.364L764.148 148.49H744.118L773.28 46.8356H803.901L833.064 148.49H813.034L807.048 127.162H806.971ZM802.597 111.894L789.397 65.5553H787.939L774.585 111.894H802.597Z" fill="#F5A207"/>
<path d="M902.134 148.413L885.864 113.889H866.141V148.413H846.111V46.7589H888.243C895.918 46.7589 902.057 47.9097 906.508 50.2113C910.959 52.5129 914.183 56.1188 916.178 61.1823C918.173 66.2458 919.171 73.1506 919.171 81.8967C919.171 89.7989 918.097 96.1666 915.948 101C913.799 105.833 910.422 109.286 905.894 111.357L923.776 148.413H902.134ZM866.141 98.6217H888.09C891.85 98.6217 894.536 98.1614 895.994 97.164C897.452 96.1666 898.22 94.4021 898.22 91.7936V70.1585C898.22 67.55 897.452 65.7855 895.994 64.7881C894.536 63.7908 891.927 63.3304 888.09 63.3304H866.141V98.6217Z" fill="#F5A207"/>
<path d="M56.9485 66.6228L153.416 23.6595L250.958 67.2365L157.33 107.208L56.9485 66.6228Z" fill="#F9E17A"/>
<path d="M68.3067 85.2657L23.2578 105.366L158.404 159.991L284.649 106.134L239.907 86.1097L157.483 121.324L68.3067 85.2657Z" fill="#F9BC12"/>
<path d="M44.6695 128.076L0.234619 147.869L159.172 212.161L307.672 148.713L263.928 129.15L158.558 174.031L44.6695 128.076Z" fill="#F5A207"/>
</g>
<g clip-path="url(#clip1_1_425)">
<path d="M413.596 195.777C412.927 195.524 412.468 195.144 412.175 194.553C411.924 193.962 411.799 193.117 411.799 191.935V183.658H414.181V194.088H416.688C417.356 194.088 417.816 194.088 418.15 194.004C418.484 193.962 418.693 193.835 418.819 193.708C418.944 193.582 418.986 193.37 418.986 193.075V183.658H421.368V191.977C421.368 193.117 421.242 194.004 420.95 194.595C420.699 195.186 420.198 195.566 419.529 195.82C418.861 196.073 417.858 196.157 416.521 196.157C415.184 196.157 414.181 196.031 413.512 195.82L413.596 195.777Z" fill="#F5A207"/>
<path d="M429.096 195.82H426.714V183.658H431.645C432.564 183.658 433.274 183.785 433.818 184.08C434.361 184.334 434.737 184.798 434.988 185.39C435.238 185.981 435.364 186.825 435.364 187.881C435.364 189.359 435.113 190.457 434.57 191.09C434.027 191.766 433.191 192.061 431.979 192.061H429.138V195.82H429.096ZM431.603 190.203C432.063 190.203 432.355 190.161 432.522 190.035C432.689 189.908 432.773 189.697 432.773 189.401V186.445C432.773 186.15 432.689 185.938 432.522 185.812C432.355 185.685 432.021 185.643 431.603 185.643H429.096V190.203H431.603Z" fill="#F5A207"/>
<path d="M446.309 195.82L444.387 191.681H442.047V195.82H439.666V183.658H444.68C445.599 183.658 446.309 183.785 446.853 184.08C447.396 184.334 447.772 184.798 448.023 185.39C448.273 185.981 448.399 186.825 448.399 187.881C448.399 188.81 448.273 189.612 448.023 190.161C447.772 190.752 447.354 191.132 446.811 191.386L448.942 195.82H446.351H446.309ZM442.006 189.866H444.638C445.098 189.866 445.39 189.823 445.557 189.697C445.724 189.57 445.808 189.359 445.808 189.063V186.445C445.808 186.15 445.724 185.938 445.557 185.812C445.39 185.685 445.056 185.643 444.638 185.643H442.006V189.866Z" fill="#F5A207"/>
<path d="M459.644 193.286H455.257L454.505 195.82H452.123L455.633 183.658H459.268L462.736 195.82H460.354L459.644 193.286ZM459.101 191.47L457.513 185.938H457.346L455.758 191.47H459.101Z" fill="#F5A207"/>
<path d="M467.498 183.658L470.13 193.582H470.297L472.93 183.658H475.311L472.011 195.82H468.375L465.116 183.658H467.498Z" fill="#F5A207"/>
<path d="M479.405 183.658H481.786V193.835H486.09V195.82H479.405V183.658Z" fill="#F5A207"/>
<path d="M490.727 193.877C491.02 193.877 491.27 193.877 491.437 193.751C491.605 193.624 491.688 193.539 491.688 193.286V185.643H489.724V183.658H494.07V193.075C494.07 194.088 493.819 194.806 493.318 195.228C492.816 195.651 492.064 195.862 491.061 195.862H489.265L488.972 193.919H490.727V193.877Z" fill="#F5A207"/>
<path d="M505.685 193.286H501.297L500.545 195.82H498.164L501.673 183.658H505.309L508.777 195.82H506.395L505.685 193.286ZM505.141 191.47L503.554 185.938H503.387L501.799 191.47H505.141Z" fill="#F5A207"/>
<path d="M513.086 183.658H515.426L519.646 190.499C519.855 190.837 519.98 191.048 520.022 191.217C520.064 191.386 520.147 191.555 520.147 191.724H520.273V183.658H522.654V195.82H520.315L516.094 188.979C515.885 188.683 515.76 188.43 515.718 188.261C515.677 188.092 515.635 187.923 515.593 187.712H515.468V195.777H513.086V183.658Z" fill="#F5A207"/>
<path d="M528.795 193.877C529.087 193.877 529.338 193.877 529.505 193.751C529.672 193.624 529.756 193.539 529.756 193.286V185.643H527.792V183.658H532.138V193.075C532.138 194.088 531.887 194.806 531.386 195.228C530.884 195.651 530.132 195.862 529.129 195.862H527.333L527.04 193.919H528.795V193.877Z" fill="#F5A207"/>
<path d="M539.992 193.835H545.173V195.82H537.61V183.658H545.131L544.839 185.643H539.992V188.81H544.421V190.668H539.992V193.835Z" fill="#F5A207"/>
<path d="M559.336 195.82H556.954V183.658H561.885C562.804 183.658 563.514 183.785 564.057 184.08C564.601 184.334 564.977 184.798 565.227 185.39C565.478 185.981 565.603 186.825 565.603 187.881C565.603 189.359 565.353 190.457 564.809 191.09C564.266 191.766 563.431 192.061 562.219 192.061H559.378V195.82H559.336ZM561.843 190.203C562.302 190.203 562.595 190.161 562.762 190.035C562.929 189.908 563.013 189.697 563.013 189.401V186.445C563.013 186.15 562.929 185.938 562.762 185.812C562.595 185.685 562.261 185.643 561.843 185.643H559.336V190.203H561.843Z" fill="#F5A207"/>
<path d="M576.556 195.82L574.634 191.681H572.294V195.82H569.913V183.658H574.927C575.846 183.658 576.556 183.785 577.099 184.08C577.643 184.334 578.019 184.798 578.269 185.39C578.52 185.981 578.645 186.825 578.645 187.881C578.645 188.81 578.52 189.612 578.269 190.161C578.019 190.752 577.601 191.132 577.058 191.386L579.189 195.82H576.598H576.556ZM572.253 189.866H574.885C575.345 189.866 575.637 189.823 575.804 189.697C575.971 189.57 576.055 189.359 576.055 189.063V186.445C576.055 186.15 575.971 185.938 575.804 185.812C575.637 185.685 575.303 185.643 574.885 185.643H572.253V189.866Z" fill="#F5A207"/>
<path d="M583.658 185.769C583.95 184.882 584.452 184.249 585.162 183.911C585.872 183.573 586.959 183.404 588.379 183.404C589.8 183.404 590.886 183.573 591.597 183.911C592.307 184.249 592.808 184.882 593.101 185.769C593.393 186.656 593.519 188.007 593.519 189.78C593.519 191.554 593.393 192.863 593.101 193.75C592.808 194.637 592.307 195.27 591.597 195.608C590.886 195.946 589.8 196.114 588.379 196.114C586.959 196.114 585.872 195.946 585.162 195.608C584.452 195.27 583.95 194.637 583.658 193.75C583.365 192.863 583.24 191.554 583.24 189.738C583.24 187.922 583.365 186.613 583.658 185.727V185.769ZM589.299 194.088C589.925 194.088 590.343 194.003 590.552 193.792C590.803 193.581 590.928 193.243 590.928 192.779V185.389H587.418C586.792 185.389 586.374 185.473 586.165 185.684C585.956 185.895 585.831 186.233 585.831 186.698V194.045H589.34L589.299 194.088Z" fill="#F5A207"/>
<path d="M599.075 193.877C599.367 193.877 599.618 193.877 599.785 193.751C599.952 193.624 600.036 193.539 600.036 193.286V185.643H598.072V183.658H602.417V193.075C602.417 194.088 602.167 194.806 601.665 195.228C601.164 195.651 600.412 195.862 599.409 195.862H597.612L597.32 193.919H599.075V193.877Z" fill="#F5A207"/>
<path d="M610.272 193.835H615.453V195.82H607.89V183.658H615.411L615.119 185.643H610.272V188.81H614.701V190.668H610.272V193.835Z" fill="#F5A207"/>
<path d="M629.533 195.82H626.942L625.521 192.737C625.312 192.273 625.103 191.893 624.978 191.512C624.853 191.175 624.811 190.795 624.811 190.457H622.68V195.777H620.298V183.658H622.68V188.683H624.811C624.811 188.092 625.062 187.332 625.521 186.445L626.858 183.7H629.449L626.566 189.612L629.574 195.862L629.533 195.82Z" fill="#F5A207"/>
<path d="M637.77 195.82H635.388V185.643H632.296V183.658H640.903V185.643H637.811V195.82H637.77Z" fill="#F5A207"/>
<path d="M647.462 183.658V195.82H645.08V183.658H647.462Z" fill="#F5A207"/>
<path d="M653.436 183.658H656.612L659.035 192.104H659.161L661.584 183.658H664.76L665.554 195.82H663.172L662.629 187.079H662.503L659.996 195.82H658.116L655.609 187.079H655.484L654.941 195.82H652.559L653.353 183.658H653.436Z" fill="#F5A207"/>
<path d="M677.001 193.286H672.613L671.861 195.82H669.479L672.948 183.658H676.583L680.051 195.82H677.669L676.959 193.286H677.001ZM676.457 191.47L674.87 185.938H674.702L673.115 191.47H676.457Z" fill="#F5A207"/>
<path d="M690.578 187.671C690.829 187.417 691.246 187.291 691.915 187.291C692.584 187.291 693.001 187.417 693.252 187.671C693.503 187.924 693.586 188.388 693.586 189.064C693.586 189.74 693.461 190.246 693.252 190.5C693.043 190.753 692.584 190.88 691.915 190.88C691.246 190.88 690.787 190.753 690.578 190.5C690.369 190.246 690.244 189.782 690.244 189.064C690.244 188.346 690.369 187.924 690.578 187.671Z" fill="#F5A207"/>
<path d="M705.709 183.658H708.049L712.269 190.499C712.478 190.837 712.603 191.048 712.645 191.217C712.687 191.386 712.77 191.555 712.77 191.724H712.896V183.658H715.278V195.82H712.938L708.717 188.979C708.509 188.683 708.383 188.43 708.341 188.261C708.3 188.092 708.258 187.923 708.216 187.712H708.091V195.777H705.709V183.658Z" fill="#F5A207"/>
<path d="M727.017 193.286H722.63L721.878 195.82H719.496L722.964 183.658H726.599L730.067 195.82H727.686L726.975 193.286H727.017ZM726.474 191.47L724.886 185.938H724.719L723.131 191.47H726.474Z" fill="#F5A207"/>
<path d="M738.924 183.658C740.303 183.658 741.347 183.827 742.058 184.165C742.768 184.503 743.228 185.094 743.478 185.938C743.729 186.783 743.854 188.092 743.854 189.781C743.854 191.47 743.729 192.779 743.478 193.624C743.228 194.468 742.726 195.06 742.058 195.397C741.347 195.735 740.303 195.904 738.924 195.904H734.328V183.658H738.924ZM736.709 193.877H739.801C740.386 193.877 740.762 193.793 740.971 193.582C741.18 193.37 741.306 193.033 741.306 192.526V186.952C741.306 186.445 741.18 186.065 740.971 185.896C740.762 185.727 740.345 185.601 739.801 185.601H736.709V193.877Z" fill="#F5A207"/>
<path d="M747.99 194.257L754.257 185.77V185.643H748.951L748.7 183.658H757.516V185.221L751.249 193.708V193.835H757.266V195.82H747.99V194.257Z" fill="#F5A207"/>
<path d="M761.993 185.769C762.285 184.882 762.786 184.249 763.497 183.911C764.207 183.573 765.293 183.404 766.714 183.404C768.135 183.404 769.221 183.573 769.931 183.911C770.642 184.249 771.143 184.882 771.436 185.769C771.728 186.656 771.854 188.007 771.854 189.78C771.854 191.554 771.728 192.863 771.436 193.75C771.143 194.637 770.642 195.27 769.931 195.608C769.221 195.946 768.135 196.114 766.714 196.114C765.293 196.114 764.207 195.946 763.497 195.608C762.786 195.27 762.285 194.637 761.993 193.75C761.7 192.863 761.575 191.554 761.575 189.738C761.575 187.922 761.7 186.613 761.993 185.727V185.769ZM767.633 194.088C768.26 194.088 768.678 194.003 768.887 193.792C769.138 193.581 769.263 193.243 769.263 192.779V185.389H765.753C765.126 185.389 764.709 185.473 764.5 185.684C764.291 185.895 764.165 186.233 764.165 186.698V194.045H767.675L767.633 194.088Z" fill="#F5A207"/>
<path d="M783.551 195.82L781.629 191.681H779.289V195.82H776.908V183.658H781.922C782.841 183.658 783.551 183.785 784.095 184.08C784.638 184.334 785.014 184.798 785.264 185.39C785.515 185.981 785.641 186.825 785.641 187.881C785.641 188.81 785.515 189.612 785.264 190.161C785.014 190.752 784.596 191.132 784.053 191.386L786.184 195.82H783.593H783.551ZM779.248 189.866H781.88C782.34 189.866 782.632 189.823 782.799 189.697C782.966 189.57 783.05 189.359 783.05 189.063V186.445C783.05 186.15 782.966 185.938 782.799 185.812C782.632 185.685 782.298 185.643 781.88 185.643H779.248V189.866Z" fill="#F5A207"/>
<path d="M818.549 195.82H815.958L814.537 192.737C814.329 192.272 814.12 191.892 813.994 191.512C813.869 191.175 813.827 190.794 813.827 190.457H811.696V195.777H809.314V183.616H811.696V188.641H813.827C813.827 188.05 814.078 187.29 814.537 186.403L815.875 183.658H818.465L815.582 189.57L818.59 195.82H818.549Z" fill="#F5A207"/>
<path d="M822.6 185.726C822.893 184.84 823.394 184.206 824.104 183.868C824.815 183.531 825.901 183.362 827.322 183.362C828.742 183.362 829.829 183.531 830.539 183.868C831.249 184.206 831.751 184.84 832.043 185.726C832.336 186.613 832.461 187.964 832.461 189.738C832.461 191.512 832.336 192.821 832.043 193.707C831.751 194.594 831.249 195.228 830.539 195.565C829.829 195.903 828.742 196.072 827.322 196.072C825.901 196.072 824.815 195.903 824.104 195.565C823.394 195.228 822.893 194.594 822.6 193.707C822.308 192.821 822.182 191.512 822.182 189.696C822.182 187.88 822.308 186.571 822.6 185.684V185.726ZM828.241 194.045C828.868 194.045 829.286 193.961 829.495 193.75C829.745 193.538 829.871 193.201 829.871 192.736V185.389H826.361C825.734 185.389 825.316 185.473 825.107 185.684C824.898 185.895 824.773 186.233 824.773 186.698V194.045H828.283H828.241Z" fill="#F5A207"/>
<path d="M837.557 183.616H839.897L844.117 190.457C844.326 190.794 844.451 191.005 844.493 191.174C844.535 191.343 844.619 191.512 844.619 191.681H844.744V183.616H847.126V195.777H844.786L840.566 188.936C840.357 188.641 840.231 188.387 840.19 188.218C840.148 188.05 840.106 187.881 840.064 187.67H839.939V195.735H837.557V183.573V183.616Z" fill="#F5A207"/>
<path d="M851.804 194.215L858.072 185.727V185.601H852.765L852.514 183.616H861.331V185.178L855.063 193.666V193.793H861.08V195.777H851.804V194.215Z" fill="#F5A207"/>
<path d="M872.026 193.244H867.638L866.886 195.777H864.505L867.973 183.616H871.608L875.076 195.777H872.694L871.984 193.244H872.026ZM871.483 191.428L869.895 185.896H869.728L868.14 191.428H871.483Z" fill="#F5A207"/>
<path d="M879.343 183.616H881.725V193.793H886.029V195.777H879.343V183.616Z" fill="#F5A207"/>
<path d="M893.549 195.82H891.167V185.643H888.075V183.658H896.683V185.643H893.591V195.82H893.549Z" fill="#F5A207"/>
<path d="M903.2 183.616V195.777H900.818V183.616H903.2Z" fill="#F5A207"/>
<path d="M908.798 183.616H911.138L915.358 190.457C915.567 190.794 915.692 191.005 915.734 191.174C915.776 191.343 915.859 191.512 915.859 191.681H915.985V183.616H918.366V195.777H916.026L911.806 188.936C911.597 188.641 911.472 188.387 911.43 188.218C911.388 188.05 911.347 187.881 911.305 187.67H911.18V195.735H908.798V183.573V183.616Z" fill="#F5A207"/>
<path d="M932.362 188.978V195.396C931.735 195.65 931.067 195.861 930.357 195.945C929.646 196.03 928.811 196.114 927.849 196.114C926.638 196.114 925.718 195.945 925.092 195.608C924.465 195.27 924.047 194.636 923.838 193.75C923.588 192.863 923.462 191.512 923.462 189.738C923.462 187.964 923.588 186.698 923.88 185.811C924.172 184.924 924.632 184.291 925.342 183.911C926.053 183.531 927.056 183.362 928.434 183.362C928.978 183.362 929.604 183.404 930.273 183.488C930.941 183.573 931.485 183.657 931.861 183.784L931.568 185.726C931.067 185.6 930.482 185.515 929.813 185.473C929.145 185.389 928.602 185.346 928.142 185.346C927.348 185.346 926.805 185.431 926.471 185.642C926.178 185.853 926.011 186.233 926.011 186.824V194.172H930.189V190.794H928.518V188.978H932.362Z" fill="#F5A207"/>
<path d="M795.388 187.671C795.639 187.417 796.057 187.291 796.725 187.291C797.394 187.291 797.811 187.417 798.062 187.671C798.313 187.924 798.396 188.388 798.396 189.064C798.396 189.74 798.271 190.246 798.062 190.5C797.853 190.753 797.394 190.88 796.725 190.88C796.057 190.88 795.597 190.753 795.388 190.5C795.179 190.246 795.054 189.782 795.054 189.064C795.054 188.346 795.179 187.924 795.388 187.671Z" fill="#F5A207"/>
</g>
<defs>
<clipPath id="clip0_1_425">
<rect width="937.123" height="198.398" fill="white" transform="translate(0.234619 23.6595)"/>
</clipPath>
<clipPath id="clip1_1_425">
<rect width="524.079" height="16.266" fill="white" transform="translate(411.799 183.362)"/>
</clipPath>
</defs>
</svg>
